<svg width="192" height="31" viewBox="0 0 192 31" fill="none" xmlns="http://www.w3.org/2000/svg">
<path d="M0.528409 30V0.90909H20.1307V5.98011H6.67898V12.9119H19.1222V17.983H6.67898V24.929H20.1875V30H0.528409ZM45.6479 8.18182L38.02 30H31.2018L23.574 8.18182H29.9661L34.4973 23.7926H34.7246L39.2416 8.18182H45.6479ZM58.3845 30.4261C56.1402 30.4261 54.2084 29.9716 52.5891 29.0625C50.9792 28.1439 49.7387 26.8466 48.8675 25.1705C47.9963 23.4848 47.5607 21.4915 47.5607 19.1903C47.5607 16.946 47.9963 14.9763 48.8675 13.2812C49.7387 11.5862 50.965 10.2652 52.5464 9.31818C54.1374 8.37121 56.0029 7.89773 58.143 7.89773C59.5824 7.89773 60.9224 8.12973 62.1629 8.59375C63.4129 9.0483 64.5019 9.73485 65.43 10.6534C66.3675 11.572 67.0966 12.7273 67.6175 14.1193C68.1383 15.5019 68.3987 17.1212 68.3987 18.9773V20.6392H49.9754V16.8892H62.7027C62.7027 16.018 62.5133 15.2462 62.1345 14.5739C61.7557 13.9015 61.2302 13.3759 60.5578 12.9972C59.8949 12.6089 59.1232 12.4148 58.2425 12.4148C57.3239 12.4148 56.5095 12.6278 55.7993 13.054C55.0985 13.4706 54.5493 14.0341 54.1516 14.7443C53.7538 15.4451 53.5502 16.2263 53.5408 17.0881V20.6534C53.5408 21.733 53.7396 22.6657 54.1374 23.4517C54.5446 24.2377 55.1175 24.8438 55.8561 25.2699C56.5947 25.696 57.4707 25.9091 58.4839 25.9091C59.1563 25.9091 59.7718 25.8144 60.3305 25.625C60.8893 25.4356 61.3675 25.1515 61.7652 24.7727C62.1629 24.3939 62.466 23.9299 62.6743 23.3807L68.2709 23.75C67.9868 25.0947 67.4044 26.2689 66.5237 27.2727C65.6525 28.267 64.5256 29.0436 63.143 29.6023C61.7699 30.1515 60.1838 30.4261 58.3845 30.4261ZM78.7987 17.3864V30H72.7476V8.18182H78.5146V12.0312H78.7703C79.2533 10.7623 80.0629 9.75852 81.1993 9.01989C82.3357 8.27178 83.7135 7.89773 85.3328 7.89773C86.848 7.89773 88.169 8.22917 89.2959 8.89205C90.4228 9.55492 91.2987 10.5019 91.9237 11.733C92.5487 12.9545 92.8612 14.4129 92.8612 16.108V30H86.8101V17.1875C86.8196 15.8523 86.4786 14.8106 85.7874 14.0625C85.0961 13.3049 84.1444 12.9261 82.9322 12.9261C82.1178 12.9261 81.3982 13.1013 80.7732 13.4517C80.1576 13.8021 79.6747 14.3134 79.3243 14.9858C78.9834 15.6487 78.8082 16.4489 78.7987 17.3864ZM109.636 8.18182V12.7273H96.4963V8.18182H109.636ZM99.4793 2.95455H105.53V23.2955C105.53 23.8542 105.616 24.2898 105.786 24.6023C105.957 24.9053 106.193 25.1184 106.496 25.2415C106.809 25.3646 107.169 25.4261 107.576 25.4261C107.86 25.4261 108.144 25.4025 108.428 25.3551C108.712 25.2983 108.93 25.2557 109.082 25.2273L110.033 29.7301C109.73 29.8248 109.304 29.9337 108.755 30.0568C108.206 30.1894 107.538 30.2699 106.752 30.2983C105.294 30.3551 104.015 30.161 102.917 29.7159C101.828 29.2708 100.98 28.5795 100.374 27.642C99.7681 26.7045 99.4698 25.5208 99.4793 24.0909V2.95455ZM114.56 30V0.90909H120.71V12.9119H133.196V0.90909H139.332V30H133.196V17.983H120.71V30H114.56ZM158.681 20.7102V8.18182H164.732V30H158.923V26.0369H158.695C158.203 27.3153 157.384 28.3428 156.238 29.1193C155.102 29.8958 153.714 30.2841 152.076 30.2841C150.618 30.2841 149.335 29.9527 148.227 29.2898C147.119 28.6269 146.252 27.6847 145.627 26.4631C145.012 25.2415 144.699 23.7784 144.69 22.0739V8.18182H150.741V20.9943C150.75 22.2822 151.096 23.3002 151.778 24.0483C152.46 24.7964 153.373 25.1705 154.519 25.1705C155.248 25.1705 155.93 25.0047 156.565 24.6733C157.199 24.3324 157.711 23.8305 158.099 23.1676C158.497 22.5047 158.691 21.6856 158.681 20.7102ZM170.086 30V0.90909H176.137V11.8466H176.322C176.587 11.2595 176.971 10.6629 177.473 10.0568C177.984 9.44129 178.647 8.92992 179.461 8.52273C180.285 8.10606 181.308 7.89773 182.529 7.89773C184.12 7.89773 185.588 8.31439 186.933 9.14773C188.278 9.97159 189.352 11.2169 190.157 12.8835C190.962 14.5407 191.365 16.6193 191.365 19.1193C191.365 21.553 190.972 23.608 190.186 25.2841C189.409 26.9508 188.349 28.215 187.004 29.0767C185.669 29.929 184.172 30.3551 182.515 30.3551C181.341 30.3551 180.342 30.161 179.518 29.7727C178.704 29.3845 178.036 28.8968 177.515 28.3097C176.994 27.7131 176.597 27.1117 176.322 26.5057H176.052V30H170.086ZM176.01 19.0909C176.01 20.3883 176.189 21.5199 176.549 22.4858C176.909 23.4517 177.43 24.2045 178.112 24.7443C178.794 25.2746 179.622 25.5398 180.598 25.5398C181.582 25.5398 182.416 25.2699 183.098 24.7301C183.779 24.1809 184.296 23.4233 184.646 22.4574C185.006 21.482 185.186 20.3598 185.186 19.0909C185.186 17.8314 185.01 16.7235 184.66 15.767C184.31 14.8106 183.794 14.0625 183.112 13.5227C182.43 12.983 181.592 12.7131 180.598 12.7131C179.613 12.7131 178.779 12.9735 178.098 13.4943C177.425 14.0152 176.909 14.7538 176.549 15.7102C176.189 16.6667 176.01 17.7936 176.01 19.0909Z" fill="#7848F3"/>
</svg>
